<svg viewBox="0 0 400 400" xmlns="http://www.w3.org/2000/svg"><g fill="#cde"><path d="m213.25 192.69c-2.63-.82-4.02.1-5.27 2.09-5.56 8.84-8.02 18.72-9.25 28.85-2.42 19.94-3.07 39.96-.74 59.97.76 6.55 2.28 13.06.57 19.64-.55 2.13-1.18 4.48-2.53 6.09-1.42 1.69-3.65 2.81-5.7 3.82-3.06 1.5-3.82-1.56-5.68-3.69-.39 3.62-.8 6.65-1.01 9.69-.19 2.76-1.64 3.64-4.22 3.49-4.83-.28-5.72-.93-7.41-5.56-6.96-19.12-13.68-38.31-18.55-58.1-3.47-14.08-3.55-28.38-2.83-42.7.63-12.44 2.82-24.64 6.27-36.63.73-2.52 2.11-4.1 4.27-5.2 3.57-1.82 6-.87 7.14 2.92 2.69 8.94 1.38 17.94.45 26.98-1.15 11.21-4.72 22.15-3.75 33.6 1.83 21.58 7.31 42.25 15.66 62.19.15.36.43.68.65 1.01.38-.04.77-.08 1.15-.12 0-8.33-.27-16.66.05-24.98.73-19.01 1.65-38.01 2.71-57.01.29-5.12 1.32-10.2 2.13-15.28.17-1.06.78-2.09 1.32-3.05 1.64-2.93 3.61-5.7 4.99-8.74 3.74-8.22 9.26-14.57 17.55-18.48 1.05-.49 2.01-2.34 2.06-3.59.22-5.48-.02-10.97.15-16.46.07-2.11-.72-3.06-2.62-3.42-13.97-2.68-20.69-11.89-23.24-25.24-4-20.97-5.05-41.96-.94-63.02 1.02-5.24 3.64-7.01 8.93-6.2.74.11 1.7 1.4 1.86 2.28 1.36 7.46 3.16 14.9 3.65 22.43.52 7.9-.34 15.87-.45 23.82-.13 8.46.47 16.85 5.23 24.22 1.52 2.36 3.67 4.32 5.53 6.46.43-.15.85-.3 1.28-.45 0-5.21-.03-10.42.01-15.63.16-24.29.39-48.58.48-72.88.02-6.36 1.7-11.86 6.61-16.16 5.61 2.21 8.43 6.18 8.42 12.13-.03 21.72-.14 43.44-.01 65.16.05 9.16.6 18.32.92 27.48.28.27.56.54.84.81 1.8-1.35 4.08-2.36 5.31-4.11 5.2-7.41 6.7-16.05 6.92-24.84.27-10.96-.01-21.94.09-32.91.03-3.79.12-7.65.9-11.32.44-2.07 1.97-4.41 3.71-5.6 3.73-2.55 6.7-1.5 7.62 2.85 1.5 7.07 3.06 14.26 3.3 21.44.51 15.12-.45 30.26-3.56 45.09-1.1 5.24-4.08 10.1-6.37 15.05-.36.77-1.53 1.23-2.4 1.69-5.04 2.66-10.07 5.35-15.2 7.86-1.67.82-2.21 1.79-2.17 3.6.11 5.82.12 11.65 0 17.47-.04 1.87.54 2.78 2.32 3.41 2.31.81 4.49 1.98 6.71 3.02 7.46 3.48 11.86 9.49 14.65 17.08 4.88 13.26 6.88 27.03 8.04 41.02 1.55 18.62.25 37.12-1.67 55.62-.58 5.56-.84 11.16-1.09 16.75-.14 3.16-1.71 5.15-4.63 5.72-2.87.56-4.99-.46-6.26-3.55-3.24-7.91-2.82-16.03-1.65-24.15 2.22-15.42 1.76-30.86.02-46.22-1.23-10.85-3.35-21.63-5.73-32.3-1.35-6.05-4.3-11.66-9.83-16.03 0 5.62.03 11.25 0 16.87-.25 39.63-.54 79.27-.77 118.9-.06 10.17.11 20.35-.04 30.52-.03 2.28-.7 4.66-1.57 6.8-1.33 3.27-4.02 4.32-7.39 3.61-2.11-.45-3.13-1.57-3.66-3.69-2.72-10.79-2.25-21.76-2.23-32.73.09-45.91.08-91.82.1-137.73-.02-.54-.1-1.09-.15-1.73z"/><path d="m140.21 137.91c3.22-.87 6.06-1.48 8.77-2.46 1.14-.41 2.22-1.45 2.95-2.48 6.22-8.8 7.12-18.73 5.3-28.91-2.36-13.2-5.47-26.27-7.82-39.47-.89-5.01-.68-10.24-.7-15.37-.01-2.94 1.5-5.08 4.57-5.85 3.19-.8 5.23.52 7 3.15 3.38 5.04 3.95 10.84 4.97 16.56 2.48 13.87 5.13 27.71 7.45 41.6 1.81 10.82.71 21.43-3.76 31.53-.69 1.56-1.89 3.01-3.17 4.16-3.09 2.75-6.54 5.12-9.52 7.97-3.36 3.21-7.31 4.51-11.77 4.94-6.66.65-7.81 2.08-8.45 8.73-1.2 12.58-2.81 25.13-3.84 37.72-1.44 17.66 1.3 35.05 4.22 52.39 1.34 7.94 2.18 16 4.13 23.79 2.9 11.57 6.36 23.02 10 34.39 4.92 15.33 10.25 30.52 15.36 45.78.78 2.32 1.37 4.72 1.87 7.12 1.12 5.31-1.4 9.57-6.72 10.92-.94.24-2.66-.76-3.36-1.69-5.8-7.64-10.07-16.19-12.89-25.29-5.16-16.64-9.82-33.43-14.66-50.16-1.99-6.87-3.7-13.82-5.95-20.61-4.01-12.1-4.79-24.76-6.91-37.19-2.17-12.7.27-25.22 1.02-37.78 1.42-23.68 3.4-47.33 5.09-70.99.71-9.93 1.82-19.87 1.82-29.81-.01-15.06-1.74-29.95-8.44-43.78-2.04-4.22-4.39-8.3-6.59-12.45-2.38-4.5-4.2-9.14-3.69-14.4.35-3.59 3.64-5.92 6.74-4.18 2.55 1.43 5.08 3.41 6.75 5.76 2.31 3.24 4.19 6.91 5.57 10.66 5.56 15.1 11.21 30.21 13.48 46.25.76 5.41 1.04 10.91 1.12 16.38.17 10.87.06 21.73.06 33.07z"/><path d="m329.95 164.29c0 17.58.45 35.18-.16 52.74-.4 11.7-2.17 23.36-3.63 35-.34 2.69-1.89 5.23-2.89 7.83-2.28 5.94-7.61 8-12.98 9.52-10.46 2.98-20.62.83-30.55-2.76-.96-.35-1.79-1.33-2.47-2.18-4.53-5.64-7.15-12-7.62-19.32-2.58-40.24-2.65-80.54-2.46-120.84.05-11.2 1.85-22.08 7.05-32.14.74-1.43 2.21-2.67 3.63-3.54 4.9-3.01 10.29-4.07 16.03-3.77 3.68.19 7.38-.07 11.08-.06 14.89.03 22.77 6.9 24.04 21.76.78 9.13.76 18.34.89 27.51.14 10.09.04 20.17.04 30.25zm-48.61 48.5c.54 9.51.19 18.67 1.76 27.49 2.38 13.36 8.72 17.2 21.53 15.18 3.78-.6 6.44-2.68 7.02-6.94 1.37-10.06 3.01-20.09 4.33-30.15.3-2.32-.27-4.76-.47-7.53-11.49.65-22.39 1.27-34.17 1.95zm1.48-17.93c.45.16.75.36 1.05.37 9.96.03 19.91.01 29.87.09 2.16.02 2.25-1.21 2.23-2.81-.04-5.37-.01-10.74-.01-16.11 0-6.47 0-12.93 0-19.85-11.19-.37-22.06-.73-33.14-1.1zm32.27-56.23c0-9.61.14-18.75-.09-27.88-.06-2.48-.93-5.09-2.03-7.35-.58-1.19-2.39-2.39-3.73-2.5-6.57-.53-13.16-.68-19.75-1-1.78-.09-3.18.08-3.98 2.12-4.79 12.25-4.75 24.79-2.88 37.69 11.01-.37 21.59-.72 32.46-1.08z"/><path d="m122.42 342.28c-3.18.68-5.87 1.47-8.61 1.72-1.02.09-2.44-.83-3.2-1.7-8.18-9.28-12.8-20.4-16.07-32.11-5.31-19.03-7.9-38.53-9.43-58.18-1.05-13.4-1.6-26.81.53-40.19 1.84-11.56 5.12-22.69 10.31-33.15.98-1.97 3.86-3.76 6.11-4.13 2.39-.39 5.53 4.02 5.47 6.74-.04 1.65-.15 3.47-.85 4.92-3.93 8.11-3.62 16.96-4.68 25.56-1.17 9.55-2.38 19.12-2.82 28.72-.26 5.73.76 11.54 1.51 17.28 1.6 12.2 3.01 24.44 5.29 36.52 1.25 6.62 4.06 12.97 6.29 19.39 3.25 9.36 6.63 18.71 10.15 28.61z"/><path d="m110.01 102.7c.37 10.54-4.01 19.78-7.91 29.17-5.1 12.29-12.35 23.24-20.79 33.45-3.38 4.09-7.4 6.76-12.97 6.3-3.76-.31-5.87-2.64-4.57-6.22 1.29-3.58 3.02-7.35 5.59-10.06 8.41-8.88 16.58-17.9 21.99-28.99 3.58-7.34 4.42-15.01 2.68-23.15-2.26-10.58-4.32-21.24-5.64-31.97-.56-4.6.89-9.46 1.58-14.18.27-1.82 1.37-2.43 3.38-1.95 3.62.87 6.83 2.52 7.69 6.17 3.17 13.44 8.5 26.4 8.97 40.44.01.32 0 .66 0 .99z"/></g><path d="m377.9 391.2c-.2.3-.4.5-.6.8-.7-.6-1.4-1-2.2-1.5.2-.3.4-.5.5-.8.6.4 1.4.8 2.3 1.5zm-1.8 6.1c-.2-.2-.5-.4-.9-.6.4-.6.8-1.2 1.2-1.9s.7-1.3.9-1.9c.3.3.5.5.8.7-.7 1.3-1.4 2.6-2 3.7zm2.2-9c-.3.3-.5.5-.6.8-.6-.6-1.3-1.1-2-1.5.3-.3.5-.5.6-.7.6.5 1.3.9 2 1.4zm.3.2v-.9h2 4.5c-.3 1.3-.6 2.5-1 3.6s-.9 2.1-1.4 3c.4.5 1 1 1.6 1.4s1.2.8 1.9 1.1c-.3.2-.5.4-.8.8-.4-.3-1-.7-1.6-1.2s-1.2-1.1-1.6-1.6c-.5.6-1.1 1.1-1.7 1.6s-1.4.9-2.1 1.4c-.1-.3-.3-.5-.7-.8.6-.2 1.2-.5 1.9-1s1.4-1.1 2-1.8c-.5-.8-.9-1.6-1.2-2.5s-.6-2-.8-3.2c-.4.1-.7.1-1 .1zm2.5 2.7c.3 1 .7 1.7 1 2.2.3-.5.6-1.1 1-2s.6-1.9.9-3h-3.2-.4c.1.9.3 1.8.7 2.8z" fill="#fcfbfa"/><path d="m396.5 388.5v1.5 3.6h1.5v.9c-.4 0-1 0-1.7 0h-7.9c-.5 0-.9 0-1.2 0v-.9h1.3v-3.5c0-.7 0-1.2 0-1.6h2.4c0-.8 0-1.4 0-1.7h1c0 .3-.1.8-.1 1.7h1.5c0-.8 0-1.4 0-1.7h1c0 .3-.1.9-.1 1.7zm-8.2 9.2c-.2-.3-.5-.5-.8-.8.8-.3 1.4-.6 1.9-.9s1-.7 1.4-1.1c.3.3.6.5.9.8-1.6 1-2.8 1.6-3.4 2zm2.6-6.8v-1.6h-1.5v1.6zm0 2.7v-1.9h-1.5v1.9zm2.4-2.7v-1.6h-1.5v1.6zm0 2.7v-1.9h-1.5v1.9zm.2 2 .7-.8c.4.2.9.5 1.6.8s1.3.7 1.8 1c-.3.3-.5.5-.8.8-.4-.3-1.5-1-3.3-1.8zm2-4.7v-1.6h-1.4v1.6zm0 2.7v-1.9h-1.4v1.9z" fill="#fcfbfa"/></svg>
