<svg width="400" height="400" viewBox="0 0 400 400" fill="none" xmlns="http://www.w3.org/2000/svg">
<rect width="400" height="400" rx="12" fill="#888888"/>
<path d="M213.25 192.69C210.62 191.87 209.23 192.79 207.98 194.78C202.42 203.62 199.96 213.5 198.73 223.63C196.31 243.57 195.66 263.59 197.99 283.6C198.75 290.15 200.27 296.66 198.56 303.24C198.01 305.37 197.38 307.72 196.03 309.33C194.61 311.02 192.38 312.14 190.33 313.15C187.27 314.65 186.51 311.59 184.65 309.46C184.26 313.08 183.85 316.11 183.64 319.15C183.45 321.91 182 322.79 179.42 322.64C174.59 322.36 173.7 321.71 172.01 317.08C165.05 297.96 158.33 278.77 153.46 258.98C149.99 244.9 149.91 230.6 150.63 216.28C151.26 203.84 153.45 191.64 156.9 179.65C157.63 177.13 159.01 175.55 161.17 174.45C164.74 172.63 167.17 173.58 168.31 177.37C171 186.31 169.69 195.31 168.76 204.35C167.61 215.56 164.04 226.5 165.01 237.95C166.84 259.53 172.32 280.2 180.67 300.14C180.82 300.5 181.1 300.82 181.32 301.15C181.7 301.11 182.09 301.07 182.47 301.03C182.47 292.7 182.2 284.37 182.52 276.05C183.25 257.04 184.17 238.04 185.23 219.04C185.52 213.92 186.55 208.84 187.36 203.76C187.53 202.7 188.14 201.67 188.68 200.71C190.32 197.78 192.29 195.01 193.67 191.97C197.41 183.75 202.93 177.4 211.22 173.49C212.27 173 213.23 171.15 213.28 169.9C213.5 164.42 213.26 158.93 213.43 153.44C213.5 151.33 212.71 150.38 210.81 150.02C196.84 147.34 190.12 138.13 187.57 124.78C183.57 103.81 182.52 82.82 186.63 61.76C187.65 56.52 190.27 54.75 195.56 55.56C196.3 55.67 197.26 56.96 197.42 57.84C198.78 65.3 200.58 72.74 201.07 80.27C201.59 88.17 200.73 96.14 200.62 104.09C200.49 112.55 201.09 120.94 205.85 128.31C207.37 130.67 209.52 132.63 211.38 134.77C211.81 134.62 212.23 134.47 212.66 134.32C212.66 129.11 212.63 123.9 212.67 118.69C212.83 94.4 213.06 70.11 213.15 45.81C213.17 39.45 214.85 33.95 219.76 29.65C225.37 31.86 228.19 35.83 228.18 41.78C228.15 63.5 228.04 85.22 228.17 106.94C228.22 116.1 228.77 125.26 229.09 134.42C229.37 134.69 229.65 134.96 229.93 135.23C231.73 133.88 234.01 132.87 235.24 131.12C240.44 123.71 241.94 115.07 242.16 106.28C242.43 95.32 242.15 84.34 242.25 73.37C242.28 69.58 242.37 65.72 243.15 62.05C243.59 59.98 245.12 57.64 246.86 56.45C250.59 53.9 253.56 54.95 254.48 59.3C255.98 66.37 257.54 73.56 257.78 80.74C258.29 95.86 257.33 111 254.22 125.83C253.12 131.07 250.14 135.93 247.85 140.88C247.49 141.65 246.32 142.11 245.45 142.57C240.41 145.23 235.38 147.92 230.25 150.43C228.58 151.25 228.04 152.22 228.08 154.03C228.19 159.85 228.2 165.68 228.08 171.5C228.04 173.37 228.62 174.28 230.4 174.91C232.71 175.72 234.89 176.89 237.11 177.93C244.57 181.41 248.97 187.42 251.76 195.01C256.64 208.27 258.64 222.04 259.8 236.03C261.35 254.65 260.05 273.15 258.13 291.65C257.55 297.21 257.29 302.81 257.04 308.4C256.9 311.56 255.33 313.55 252.41 314.12C249.54 314.68 247.42 313.66 246.15 310.57C242.91 302.66 243.33 294.54 244.5 286.42C246.72 271 246.26 255.56 244.52 240.2C243.29 229.35 241.17 218.57 238.79 207.9C237.44 201.85 234.49 196.24 228.96 191.87C228.96 197.49 228.99 203.12 228.96 208.74C228.71 248.37 228.42 288.01 228.19 327.64C228.13 337.81 228.3 347.99 228.15 358.16C228.12 360.44 227.45 362.82 226.58 364.96C225.25 368.23 222.56 369.28 219.19 368.57C217.08 368.12 216.06 367 215.53 364.88C212.81 354.09 213.28 343.12 213.3 332.15C213.39 286.24 213.38 240.33 213.4 194.42C213.38 193.88 213.3 193.33 213.25 192.69Z" fill="white"/>
<path d="M140.21 137.91C143.43 137.04 146.27 136.43 148.98 135.45C150.12 135.04 151.2 134 151.93 132.97C158.15 124.17 159.05 114.24 157.23 104.06C154.87 90.86 151.76 77.79 149.41 64.59C148.52 59.58 148.73 54.35 148.71 49.22C148.7 46.28 150.21 44.14 153.28 43.37C156.47 42.57 158.51 43.89 160.28 46.52C163.66 51.56 164.23 57.36 165.25 63.08C167.73 76.95 170.38 90.79 172.7 104.68C174.51 115.5 173.41 126.11 168.94 136.21C168.25 137.77 167.05 139.22 165.77 140.37C162.68 143.12 159.23 145.49 156.25 148.34C152.89 151.55 148.94 152.85 144.48 153.28C137.82 153.93 136.67 155.36 136.03 162.01C134.83 174.59 133.22 187.14 132.19 199.73C130.75 217.39 133.49 234.78 136.41 252.12C137.75 260.06 138.59 268.12 140.54 275.91C143.44 287.48 146.9 298.93 150.54 310.3C155.46 325.63 160.79 340.82 165.9 356.08C166.68 358.4 167.27 360.8 167.77 363.2C168.89 368.51 166.37 372.77 161.05 374.12C160.11 374.36 158.39 373.36 157.69 372.43C151.89 364.79 147.62 356.24 144.8 347.14C139.64 330.5 134.98 313.71 130.14 296.98C128.15 290.11 126.44 283.16 124.19 276.37C120.18 264.27 119.4 251.61 117.28 239.18C115.11 226.48 117.55 213.96 118.3 201.4C119.72 177.72 121.7 154.07 123.39 130.41C124.1 120.48 125.21 110.54 125.21 100.6C125.2 85.54 123.47 70.65 116.77 56.82C114.73 52.6 112.38 48.52 110.18 44.37C107.8 39.87 105.98 35.23 106.49 29.97C106.84 26.38 110.13 24.05 113.23 25.79C115.78 27.22 118.31 29.2 119.98 31.55C122.29 34.79 124.17 38.46 125.55 42.21C131.11 57.31 136.76 72.42 139.03 88.46C139.79 93.87 140.07 99.37 140.15 104.84C140.32 115.71 140.21 126.57 140.21 137.91Z" fill="white"/>
<path d="M329.95 164.29C329.95 181.87 330.4 199.47 329.79 217.03C329.39 228.73 327.62 240.39 326.16 252.03C325.82 254.72 324.27 257.26 323.27 259.86C320.99 265.8 315.66 267.86 310.29 269.38C299.83 272.36 289.67 270.21 279.74 266.62C278.78 266.27 277.95 265.29 277.27 264.44C272.74 258.8 270.12 252.44 269.65 245.12C267.07 204.88 267 164.58 267.19 124.28C267.24 113.08 269.04 102.2 274.24 92.14C274.98 90.71 276.45 89.47 277.87 88.6C282.77 85.59 288.16 84.53 293.9 84.83C297.58 85.02 301.28 84.76 304.98 84.77C319.87 84.8 327.75 91.67 329.02 106.53C329.8 115.66 329.78 124.87 329.91 134.04C330.05 144.13 329.95 154.21 329.95 164.29ZM281.34 212.79C281.88 222.3 281.53 231.46 283.1 240.28C285.48 253.64 291.82 257.48 304.63 255.46C308.41 254.86 311.07 252.78 311.65 248.52C313.02 238.46 314.66 228.43 315.98 218.37C316.28 216.05 315.71 213.61 315.51 210.84C304.02 211.49 293.12 212.11 281.34 212.79ZM282.82 194.86C283.27 195.02 283.57 195.22 283.87 195.23C293.83 195.26 303.78 195.24 313.74 195.32C315.9 195.34 315.99 194.11 315.97 192.51C315.93 187.14 315.96 181.77 315.96 176.4C315.96 169.93 315.96 163.47 315.96 156.55C304.77 156.18 293.9 155.82 282.82 155.45V194.86ZM315.09 138.63C315.09 129.02 315.23 119.88 315 110.75C314.94 108.27 314.07 105.66 312.97 103.4C312.39 102.21 310.58 101.01 309.24 100.9C302.67 100.37 296.08 100.22 289.49 99.9C287.71 99.81 286.31 99.98 285.51 102.02C280.72 114.27 280.76 126.81 282.63 139.71C293.64 139.34 304.22 138.99 315.09 138.63Z" fill="white"/>
<path d="M122.42 342.28C119.24 342.96 116.55 343.75 113.81 344C112.79 344.09 111.37 343.17 110.61 342.3C102.43 333.02 97.81 321.9 94.54 310.19C89.23 291.16 86.64 271.66 85.11 252.01C84.06 238.61 83.51 225.2 85.64 211.82C87.48 200.26 90.76 189.13 95.95 178.67C96.93 176.7 99.81 174.91 102.06 174.54C104.45 174.15 107.59 178.56 107.53 181.28C107.49 182.93 107.38 184.75 106.68 186.2C102.75 194.31 103.06 203.16 102 211.76C100.83 221.31 99.62 230.88 99.18 240.48C98.92 246.21 99.94 252.02 100.69 257.76C102.29 269.96 103.7 282.2 105.98 294.28C107.23 300.9 110.04 307.25 112.27 313.67C115.52 323.03 118.9 332.38 122.42 342.28Z" fill="white"/>
<path d="M110.01 102.7C110.38 113.24 106 122.48 102.1 131.87C97 144.16 89.75 155.11 81.31 165.32C77.93 169.41 73.91 172.08 68.34 171.62C64.58 171.31 62.47 168.98 63.77 165.4C65.06 161.82 66.79 158.05 69.36 155.34C77.77 146.46 85.94 137.44 91.35 126.35C94.93 119.01 95.77 111.34 94.03 103.2C91.77 92.62 89.71 81.96 88.39 71.23C87.83 66.63 89.28 61.77 89.97 57.05C90.24 55.23 91.34 54.62 93.35 55.1C96.97 55.97 100.18 57.62 101.04 61.27C104.21 74.71 109.54 87.67 110.01 101.71C110.02 102.03 110.01 102.37 110.01 102.7Z" fill="white"/>
</svg>
